<?xml version="1.0" standalone="no"?>
<!DOCTYPE svg PUBLIC "-//W3C//DTD SVG 1.0//EN" "http://www.w3.org/TR/2001/REC-SVG-20010904/DTD/svg10.dtd">
<svg xmlns="http://www.w3.org/2000/svg" xmlns:xlink="http://www.w3.org/1999/xlink" id="body_1" width="213" height="191">

<g transform="matrix(3.7812457 0 0 3.7812457 -0 0.069279954)">
	<g transform="matrix(1 0 0 1 -73.63876 -124.89229)">
        <path d="M73.63876 125.912926C 73.63876 125.34924 74.09572 124.89229 74.6594 124.89229L74.6594 124.89229L128.94876 124.89229C 129.51245 124.89229 129.9694 125.34924 129.9694 125.912926L129.9694 125.912926L129.9694 174.34746C 129.9694 174.91113 129.51245 175.3681 128.94876 175.3681L128.94876 175.3681L74.6594 175.3681C 74.09572 175.3681 73.63876 174.91113 73.63876 174.34746L73.63876 174.34746L73.63876 125.912926z" stroke="none" fill="#00ADA7" fill-rule="nonzero" />
		<g transform="matrix(0.6292743 0 0 0.66984004 26.849205 30.738096)">
            <path d="M136.63391 200.69157C 136.89731 200.40053 137.17233 200.1624 137.24509 200.1624C 137.31789 200.1624 137.16188 200.40053 136.89848 200.69157C 136.63509 200.98262 136.36006 201.22075 136.28731 201.22075C 136.21451 201.22075 136.37051 200.98262 136.63391 200.69157zM98.930786 199.53334C 98.930786 199.47844 99.139145 199.27003 99.39381 199.07033C 99.81345 198.74121 99.82281 198.75058 99.493706 199.17023C 99.14806 199.61096 98.930786 199.75111 98.930786 199.53334zM91.78703 174.13335C 91.78703 174.07845 91.99539 173.87004 92.25005 173.67033C 92.6697 173.34122 92.679054 173.35059 92.34995 173.77023C 92.00431 174.21097 91.78703 174.35112 91.78703 174.13335z" stroke="none" fill="#FFFFFF" fill-rule="nonzero" />
            <path d="M105.13702 185.74261C 105.136955 179.77626 105.171715 177.29774 105.21422 180.2348C 105.25682 183.17186 105.25682 188.0534 105.21435 191.08272C 105.171844 194.11201 105.13705 191.70898 105.13695 185.74261L105.13695 185.74261L105.13702 185.74261z" stroke="none" fill="#FFFFFF" fill-rule="nonzero" />
            <path d="M100.63802 186.53636C 100.6381 181.15208 100.67342 178.987 100.71642 181.72502C 100.75942 184.46306 100.75942 188.86838 100.71627 191.5146C 100.67317 194.16084 100.63797 191.92064 100.63807 186.53636L100.63807 186.53636L100.63802 186.53636zM130.61464 168.47916C 132.68832 168.43446 136.0816 168.43446 138.15527 168.47916C 140.22894 168.52385 138.5323 168.56046 134.38496 168.56046C 130.23761 168.56046 128.54097 168.52385 130.61464 168.47916z" stroke="none" fill="#FFFFFF" fill-rule="nonzero" />
            <path d="M90.848434 186.53636C 90.84852 181.15208 90.8838 178.987 90.926834 181.72502C 90.96987 184.46306 90.9698 188.86838 90.92668 191.5146C 90.88356 194.16084 90.84835 191.92064 90.848434 186.53636zM147.16693 175.15929C 147.16893 174.28616 147.21783 173.96086 147.2767 174.43642C 147.3356 174.91197 147.3344 175.62634 147.2737 176.02391C 147.2133 176.4215 147.16515 176.0319 147.16663 175.15929zM107.00057 172.64575C 107.86459 171.77263 108.63104 171.05826 108.703804 171.05826C 108.7766 171.05826 108.12917 171.77263 107.26517 172.64575C 106.401146 173.51888 105.6347 174.23325 105.561935 174.23325C 105.489136 174.23325 106.136566 173.51886 107.00057 172.64575z" stroke="none" fill="#FFFFFF" fill-rule="nonzero" />
            <path d="M108.72036 170.95834C 108.72036 170.90344 108.92872 170.69504 109.18338 170.49533C 109.60303 170.16621 109.61239 170.17558 109.28328 170.59523C 108.93764 171.03596 108.72036 171.17612 108.72036 170.95834z" stroke="none" fill="#FFFFFF" fill-rule="nonzero" />
            <path d="M113.04465 202.54012C 111.19802 202.16232 109.7546 201.24438 107.468445 198.99396L107.468445 198.99396L105.28078 196.84047L105.28078 185.727L105.28078 174.61356L106.888756 173.03433C 109.603325 170.36832 111.82359 167.58064 117.05473 160.27039C 122.55502 152.584 122.93827 152.21176 125.35205 152.21176C 128.28232 152.21176 130.5163 154.77924 130.46996 158.09366C 130.45386 159.2438 130.08557 160.44975 128.7131 163.84622C 127.75803 166.20978 126.9766 168.2636 126.9766 168.41028C 126.9766 168.58362 129.82474 168.67851 135.11253 168.68134C 143.04326 168.68533 143.27454 168.70064 144.28165 169.27664C 144.8499 169.60167 145.68333 170.32475 146.13373 170.88348C 146.92003 171.85892 146.9562 172.01448 147.0423 174.79007C 147.1067 176.86491 147.0202 178.00887 146.73586 178.84326C 145.78833 181.62408 137.68314 199.41959 136.97011 200.2846C 136.53746 200.8095 135.57043 201.56227 134.82118 201.95744L134.82118 201.95744L133.4589 202.67595L123.80159 202.72055C 118.49008 202.74506 113.64945 202.66385 113.04463 202.54015L113.04463 202.54015L113.04465 202.54012zM93.74069 200.1854C 93.141716 199.91339 92.30828 199.24081 91.88861 198.69078L91.88861 198.69078L91.12557 197.69073L91.04649 187.21875C 91.003006 181.45917 91.03829 176.35901 91.12498 175.88506C 91.2117 175.41075 91.72306 174.5607 92.26239 173.99431C 94.5292 171.61377 98.29703 172.06068 99.91929 174.90251C 100.51892 175.95293 100.51897 175.95398 100.452484 186.82184L100.452484 186.82184L100.38599 197.69067L99.622955 198.69075C 98.75006 199.83481 97.10705 200.67995 95.75578 200.67995C 95.24646 200.67995 94.33967 200.4574 93.74069 200.1854z" stroke="none" fill="#FFFFFF" fill-rule="nonzero" />
		</g>
	</g>
</g>
</svg>