<?xml version="1.0" encoding="UTF-8" standalone="no"?>
<!-- Created with Inkscape (http://www.inkscape.org/) -->

<svg
   width="56.47163mm"
   height="50.513153mm"
   viewBox="0 0 56.47163 50.513153"
   version="1.1"
   id="svg5"
   xml:space="preserve"
   inkscape:version="1.2.1 (9c6d41e410, 2022-07-14)"
   sodipodi:docname="like.svg"
   xmlns:inkscape="http://www.inkscape.org/namespaces/inkscape"
   xmlns:sodipodi="http://sodipodi.sourceforge.net/DTD/sodipodi-0.dtd"
   xmlns="http://www.w3.org/2000/svg"
   xmlns:svg="http://www.w3.org/2000/svg"><sodipodi:namedview
     id="namedview7"
     pagecolor="#ffffff"
     bordercolor="#000000"
     borderopacity="0.25"
     inkscape:showpageshadow="2"
     inkscape:pageopacity="0.0"
     inkscape:pagecheckerboard="0"
     inkscape:deskcolor="#d1d1d1"
     inkscape:document-units="mm"
     showgrid="false"
     inkscape:zoom="0.74564394"
     inkscape:cx="-84.490729"
     inkscape:cy="89.85522"
     inkscape:window-width="1920"
     inkscape:window-height="1017"
     inkscape:window-x="1912"
     inkscape:window-y="-8"
     inkscape:window-maximized="1"
     inkscape:current-layer="layer1" /><defs
     id="defs2" /><g
     inkscape:label="Capa 1"
     inkscape:groupmode="layer"
     id="layer1"
     transform="translate(-73.461338,-124.88918)"><g
       id="g856"
       transform="translate(-17.387097,-27.32258)"
       style="fill:#ffffff"><path
         style="fill:#ffffff;fill-opacity:1;stroke-width:1"
         d="m 136.63391,200.69157 c 0.26339,-0.29104 0.53842,-0.52917 0.61118,-0.52917 0.0728,0 -0.0832,0.23813 -0.3466,0.52917 -0.26339,0.29104 -0.53842,0.52917 -0.61118,0.52917 -0.0728,0 0.0832,-0.23813 0.3466,-0.52917 z m -37.703129,-1.15823 c 0,-0.0549 0.208359,-0.2633 0.46302,-0.46302 0.419645,-0.32911 0.429004,-0.31975 0.0999,0.0999 -0.345643,0.44073 -0.562916,0.58088 -0.562916,0.36312 z m -7.143751,-25.4 c 0,-0.0549 0.20836,-0.2633 0.463021,-0.46302 0.419644,-0.32911 0.429003,-0.31975 0.0999,0.0999 -0.345643,0.44073 -0.562916,0.58088 -0.562916,0.36312 z"
         id="path868" /><path
         style="fill:#ffffff;fill-opacity:1;stroke-width:1"
         d="m 105.13702,185.74261 c -6e-5,-5.96635 0.0347,-8.44487 0.0772,-5.50782 0.0426,2.93705 0.0426,7.81861 1.3e-4,10.84792 -0.0425,3.0293 -0.0773,0.62626 -0.0774,-5.3401 z"
         id="path866" /><path
         style="fill:#ffffff;fill-opacity:1;stroke-width:1"
         d="m 100.63802,186.53636 c 8e-5,-5.38427 0.0354,-7.54937 0.0784,-4.81134 0.043,2.73804 0.043,7.14335 -1.5e-4,9.78958 -0.0431,2.64624 -0.0783,0.40603 -0.0782,-4.97824 z m 29.97661,-18.05721 c 2.07368,-0.0447 5.46696,-0.0447 7.54063,0 2.07367,0.0447 0.37703,0.0813 -3.77031,0.0813 -4.14735,0 -5.84399,-0.0366 -3.77032,-0.0813 z"
         id="path864" /><path
         style="fill:#ffffff;fill-opacity:1;stroke-width:1"
         d="m 90.848435,186.53636 c 8.2e-5,-5.38427 0.03536,-7.54937 0.0784,-4.81134 0.04304,2.73804 0.04297,7.14335 -1.49e-4,9.78958 -0.04312,2.64624 -0.07833,0.40603 -0.07825,-4.97824 z m 56.318495,-11.37708 c 0.002,-0.87313 0.0509,-1.19842 0.10977,-0.72287 0.0589,0.47555 0.0577,1.18993 -0.003,1.5875 -0.0604,0.39758 -0.10855,0.008 -0.10707,-0.86463 z m -40.16636,-2.51354 c 0.86402,-0.87313 1.63047,-1.5875 1.70323,-1.5875 0.0728,0 -0.57463,0.71437 -1.43864,1.5875 -0.86402,0.87312 -1.63047,1.5875 -1.70323,1.5875 -0.0728,0 0.57463,-0.71438 1.43864,-1.5875 z"
         id="path862" /><path
         style="fill:#ffffff;fill-opacity:1;stroke-width:1"
         d="m 108.72036,170.95834 c 0,-0.0549 0.20836,-0.2633 0.46302,-0.46302 0.41965,-0.32911 0.42901,-0.31975 0.0999,0.0999 -0.34564,0.44073 -0.56292,0.58088 -0.56292,0.36312 z"
         id="path860" /><path
         style="fill:#ffffff;fill-opacity:1;stroke-width:1"
         d="m 113.04465,202.54011 c -1.84663,-0.37779 -3.29005,-1.29573 -5.5762,-3.54616 l -2.18767,-2.15349 V 185.727 174.61355 l 1.60798,-1.57922 c 2.71457,-2.66602 4.93484,-5.45369 10.16598,-12.76395 5.50029,-7.68639 5.88354,-8.05862 8.29732,-8.05862 2.93026,0 5.16425,2.56748 5.1179,5.88189 -0.0161,1.15015 -0.38439,2.35609 -1.75685,5.75257 -0.95507,2.36355 -1.7365,4.41738 -1.7365,4.56406 0,0.17334 2.84814,0.26823 8.13594,0.27106 7.93072,0.004 8.162,0.0193 9.16912,0.59531 0.56825,0.32503 1.40169,1.04811 1.85208,1.60684 0.7863,0.97543 0.82248,1.13099 0.90857,3.90659 0.0644,2.07484 -0.0221,3.2188 -0.30644,4.05319 -0.94753,2.78082 -9.05272,20.57632 -9.76575,21.44135 -0.43265,0.52489 -1.39967,1.27766 -2.14893,1.67283 l -1.36229,0.7185 -9.6573,0.0446 c -5.31151,0.0245 -10.15214,-0.0567 -10.75696,-0.1804 z m -19.303959,-2.35472 c -0.598977,-0.272 -1.432414,-0.94458 -1.852084,-1.49461 l -0.763035,-1.00005 -0.07908,-10.47198 c -0.04349,-5.75958 -0.0082,-10.85974 0.07848,-11.33369 0.08672,-0.4743 0.598085,-1.32435 1.137412,-1.89074 2.266804,-2.38054 6.034634,-1.93363 7.6569,0.9082 0.599636,1.05042 0.599676,1.05147 0.533196,11.91933 l -0.0665,10.86883 -0.763034,1.00008 c -0.872892,1.14406 -2.515904,1.98919 -3.867173,1.98919 -0.509323,0 -1.416114,-0.22255 -2.01509,-0.49456 z"
         id="path858" /></g></g></svg>
